# xmcd
#
# Track frame offsets:
#	150
#	19629
#	37359
#	55511
#	74848
#	91462
#	107589
#	128404
#	149378
#	171245
#	193375
#	214417
#	232226
#	250413
#	272422
#	294691
#
# Disc length: 4165 seconds
#
# Revision: 0
# Processed by: cddbd v1.5.2PL0 Copyright (c) Steve Scherf et al.
# Submitted via: EZCDAudioConverter 2.8.0.1
#
DISCID=01104310
DTITLE=辛晓琪 - 辛曉琪 谈情看爱
DYEAR=2000
DGENRE=
TTITLE0=心里有树
TTITLE1=眼前人
TTITLE2=谈情看爱
TTITLE3=瞬间
TTITLE4=一个人的甜蜜
TTITLE5=爱情的美色
TTITLE6=后遗症
TTITLE7=前夕
TTITLE8=不一定
TTITLE9=琢磨
TTITLE10=最美的季节
TTITLE11=怎么
TTITLE12=味道
TTITLE13=女人何苦为难女人
TTITLE14=领悟
TTITLE15=说谎的女人
EXTD=
EXTT0=
EXTT1=
EXTT2=
EXTT3=
EXTT4=
EXTT5=
EXTT6=
EXTT7=
EXTT8=
EXTT9=
EXTT10=
EXTT11=
EXTT12=
EXTT13=
EXTT14=
EXTT15=
PLAYORDER=
